<svg width="153" height="61" viewBox="0 0 153 61" fill="none" xmlns="http://www.w3.org/2000/svg">
<path d="M54.1176 10.6652H62.4696C65.0856 10.6652 66.3936 11.8532 66.3936 14.2292V21.4652C66.3936 23.8412 65.0856 25.0292 62.4696 25.0292H58.2576V33.3812H54.1176V10.6652ZM62.2536 20.8892V14.8052C62.2536 14.4212 62.1816 14.1692 62.0376 14.0492C61.8936 13.9052 61.6296 13.8332 61.2456 13.8332H58.2576V21.8612H61.2456C61.6296 21.8612 61.8936 21.8012 62.0376 21.6812C62.1816 21.5372 62.2536 21.2732 62.2536 20.8892ZM77.8791 10.6652H82.0191V33.3812H77.8791V23.6972H73.1991V33.3812H69.0591V10.6652H73.1991V20.5292H77.8791V10.6652ZM89.257 10.6652H93.649C96.265 10.6652 97.573 11.8532 97.573 14.2292V29.8172C97.573 32.1932 96.265 33.3812 93.649 33.3812H89.257C86.641 33.3812 85.333 32.1932 85.333 29.8172V14.2292C85.333 11.8532 86.641 10.6652 89.257 10.6652ZM93.433 29.2412V14.8052C93.433 14.4212 93.361 14.1692 93.217 14.0492C93.073 13.9052 92.809 13.8332 92.425 13.8332H90.517C90.109 13.8332 89.833 13.9052 89.689 14.0492C89.545 14.1692 89.473 14.4212 89.473 14.8052V29.2412C89.473 29.6252 89.545 29.8892 89.689 30.0332C89.833 30.1532 90.109 30.2132 90.517 30.2132H92.425C92.809 30.2132 93.073 30.1532 93.217 30.0332C93.361 29.8892 93.433 29.6252 93.433 29.2412ZM105.087 30.2132H111.999V33.3812H100.911V10.6652H111.711V13.8332H105.087V20.1332H110.667V23.3372H105.087V30.2132ZM123.159 10.6652H126.939V33.3812H123.051L118.191 18.3332V33.3812H114.375V10.6652H118.371L123.159 25.4972V10.6652ZM130.658 10.6652H134.798V33.3812H130.658V10.6652ZM146.413 21.7892L151.597 33.3812H146.989L144.145 25.4252L141.265 33.3812H136.837L141.841 21.7892L137.089 10.6652H141.733L144.145 18.1532L146.557 10.6652H151.021L146.413 21.7892Z" fill="white"/>
<path d="M58.24 45.8212V42.7412C58.24 42.4746 58.2 42.3079 58.12 42.2412C58.04 42.1612 57.8733 42.1212 57.62 42.1212H55.48V46.4412H57.62C57.8733 46.4412 58.04 46.4079 58.12 46.3412C58.2 46.2612 58.24 46.0879 58.24 45.8212ZM58.24 51.5812V48.2412C58.24 47.9879 58.2 47.8212 58.12 47.7412C58.04 47.6612 57.8733 47.6212 57.62 47.6212H55.48V52.2012H57.62C57.8733 52.2012 58.04 52.1679 58.12 52.1012C58.2 52.0212 58.24 51.8479 58.24 51.5812ZM54.1 40.9412H58.04C59.0933 40.9412 59.62 41.4679 59.62 42.5212V46.1012C59.62 46.7146 59.3733 47.0412 58.88 47.0812C59.3733 47.1612 59.62 47.4679 59.62 48.0012V51.8012C59.62 52.8546 59.0933 53.3812 58.04 53.3812H54.1V40.9412ZM61.9172 40.9412H63.2772V53.3812H61.9172V40.9412ZM67.162 40.9412H69.202C70.2554 40.9412 70.782 41.4679 70.782 42.5212V51.8012C70.782 52.8546 70.2554 53.3812 69.202 53.3812H67.162C66.1087 53.3812 65.582 52.8546 65.582 51.8012V42.5212C65.582 41.4679 66.1087 40.9412 67.162 40.9412ZM69.422 51.5812V42.7412C69.422 42.4746 69.382 42.3079 69.302 42.2412C69.222 42.1612 69.0554 42.1212 68.802 42.1212H67.562C67.3087 42.1212 67.142 42.1612 67.062 42.2412C66.982 42.3079 66.942 42.4746 66.942 42.7412V51.5812C66.942 51.8479 66.982 52.0212 67.062 52.1012C67.142 52.1679 67.3087 52.2012 67.562 52.2012H68.802C69.0554 52.2012 69.222 52.1679 69.302 52.1012C69.382 52.0212 69.422 51.8479 69.422 51.5812ZM74.2691 52.2012H77.6891V53.3812H72.8891V40.9412H77.5491V42.1212H74.2691V46.3212H76.9491V47.5012H74.2691V52.2012ZM83.2777 40.9412H84.5377V53.3812H83.0377L80.4577 43.7412V53.3812H79.1977V40.9412H80.7977L83.2777 50.2412V40.9412ZM88.1167 52.2012H91.5367V53.3812H86.7367V40.9412H91.3967V42.1212H88.1167V46.3212H90.7967V47.5012H88.1167V52.2012ZM94.4053 48.1812V53.3812H93.0453V40.9412H96.6653C97.7186 40.9412 98.2453 41.4679 98.2453 42.5212V46.6012C98.2453 47.5479 97.832 48.0679 97.0053 48.1612L98.8853 53.3812H97.4053L95.5853 48.1812H94.4053ZM94.4053 42.1212V47.0012H96.2653C96.532 47.0012 96.6986 46.9679 96.7653 46.9012C96.8453 46.8212 96.8853 46.6479 96.8853 46.3812V42.7412C96.8853 42.4746 96.8453 42.3079 96.7653 42.2412C96.6986 42.1612 96.532 42.1212 96.2653 42.1212H94.4053ZM105.33 44.4212H103.95V42.7412C103.95 42.4746 103.91 42.3079 103.83 42.2412C103.75 42.1612 103.584 42.1212 103.33 42.1212H102.23C101.964 42.1212 101.79 42.1612 101.71 42.2412C101.644 42.3079 101.61 42.4746 101.61 42.7412V51.6012C101.61 51.8546 101.644 52.0212 101.71 52.1012C101.79 52.1812 101.964 52.2212 102.23 52.2212H103.33C103.584 52.2212 103.75 52.1812 103.83 52.1012C103.91 52.0212 103.95 51.8546 103.95 51.6012V48.3012H102.95V47.1212H105.33V51.8212C105.33 52.8746 104.804 53.4012 103.75 53.4012H101.81C100.757 53.4012 100.23 52.8746 100.23 51.8212V42.5212C100.23 41.4679 100.757 40.9412 101.81 40.9412H103.75C104.804 40.9412 105.33 41.4679 105.33 42.5212V44.4212ZM110.143 53.3812H108.783V49.5812L106.323 40.9412H107.703L109.463 48.2412L111.123 40.9412H112.503L110.143 49.5812V53.3812Z" fill="#FAD537"/>
<path d="M37.9937 29.5876C37.9374 29.4189 37.8806 29.2502 37.7679 29.0815C37.4853 30.319 36.7512 32.1188 35.282 32.6815C35.282 32.6815 37.881 23.9626 32.0054 18.2814C32.0054 18.5627 32.0617 18.9001 32.0617 19.2376C32.0054 23.5125 29.7453 25.144 29.7453 25.144C29.7453 12.8251 21.949 8.71883 20.7628 0C16.3 8.10017 19.3505 13.1626 12.797 21.0377C12.5145 20.0815 10.8195 18.3939 10.4243 17.4938C8.33406 24.6939 6.01769 23.3437 4.9443 29.0814C3.9276 27.3938 2.57153 25.8749 0.707214 24.6939C1.15922 25.7627 1.32867 26.8876 1.32867 28.0125C1.32867 28.8561 0.989767 30.2624 0.594124 31.95C-1.38338 40.6124 3.07998 48.9939 10.3676 52.5939C9.8592 51.2438 9.68975 49.7252 9.97191 48.2064C10.0283 47.8689 10.1414 47.475 10.3108 47.0249C10.2545 45.5625 10.5366 44.7185 10.5934 44.4937C10.8192 43.7624 11.2148 43.0313 11.6669 42.3561C12.9661 40.4999 13.7571 37.7434 12.5141 35.8875C12.2883 35.5501 12.0058 35.4375 11.7232 35.3814C11.7232 35.3814 10.7065 34.9313 9.29415 35.4375C8.05128 35.8314 8.4469 36.7311 8.4469 36.7311C8.4469 36.7311 6.46939 35.1561 8.8989 33.8624C8.8989 33.8624 9.52036 33.5811 9.63345 33.4124L9.68981 33.1311C9.68981 32.9062 9.68981 32.5123 10.0287 32.231C10.6502 31.6122 11.7799 31.2187 11.8367 31.2187C12.4018 30.9938 12.9665 30.7125 13.4186 30.3186C14.04 29.8124 14.4921 29.1371 14.8873 28.4623C14.9437 28.3497 15.0568 28.4062 15.0568 28.5184V28.5745C14.8873 29.8682 15.2826 31.1622 16.1303 32.1745C16.6386 32.7933 17.0343 33.637 17.2038 34.7623C17.3732 35.7185 17.2601 36.956 17.2038 38.1935C16.4129 39.5998 15.2831 40.9499 13.8707 42.131C13.3623 42.581 12.9104 43.0311 12.5147 43.4811C13.1926 42.8062 13.9271 42.2436 14.7743 41.7374C28.22 33.5247 19.0114 17.606 19.0114 17.606C19.2939 17.7747 19.6892 18.1121 20.1412 18.5061C25.9601 23.4562 28.8411 31.0499 27.9939 38.6437L27.7114 41.3437C31.327 37.181 30.5361 31.8938 30.8186 32.3999C30.8186 32.3999 30.875 32.5125 30.9317 32.6813C32.683 37.4628 32.2877 42.8064 29.9151 47.3064L29.463 48.15C32.1183 46.7437 34.6605 42.4123 34.6605 42.4123C34.2085 46.8559 31.61 50.7938 27.7118 52.9312L26.9773 53.3251C27.0336 53.3251 27.0904 53.3812 27.1467 53.3812C36.4685 50.0064 41.8918 39.4311 37.9936 29.5873L37.9937 29.5876Z" fill="white"/>
</svg>
