<svg width="153" height="63" viewBox="0 0 153 63" fill="none" xmlns="http://www.w3.org/2000/svg">
<path d="M54.1176 13.284H62.4696C65.0856 13.284 66.3936 14.472 66.3936 16.848V24.084C66.3936 26.46 65.0856 27.648 62.4696 27.648H58.2576V36H54.1176V13.284ZM62.2536 23.508V17.424C62.2536 17.04 62.1816 16.788 62.0376 16.668C61.8936 16.524 61.6296 16.452 61.2456 16.452H58.2576V24.48H61.2456C61.6296 24.48 61.8936 24.42 62.0376 24.3C62.1816 24.156 62.2536 23.892 62.2536 23.508ZM77.8791 13.284H82.0191V36H77.8791V26.316H73.1991V36H69.0591V13.284H73.1991V23.148H77.8791V13.284ZM89.257 13.284H93.649C96.265 13.284 97.573 14.472 97.573 16.848V32.436C97.573 34.812 96.265 36 93.649 36H89.257C86.641 36 85.333 34.812 85.333 32.436V16.848C85.333 14.472 86.641 13.284 89.257 13.284ZM93.433 31.86V17.424C93.433 17.04 93.361 16.788 93.217 16.668C93.073 16.524 92.809 16.452 92.425 16.452H90.517C90.109 16.452 89.833 16.524 89.689 16.668C89.545 16.788 89.473 17.04 89.473 17.424V31.86C89.473 32.244 89.545 32.508 89.689 32.652C89.833 32.772 90.109 32.832 90.517 32.832H92.425C92.809 32.832 93.073 32.772 93.217 32.652C93.361 32.508 93.433 32.244 93.433 31.86ZM105.087 32.832H111.999V36H100.911V13.284H111.711V16.452H105.087V22.752H110.667V25.956H105.087V32.832ZM123.159 13.284H126.939V36H123.051L118.191 20.952V36H114.375V13.284H118.371L123.159 28.116V13.284ZM130.658 13.284H134.798V36H130.658V13.284ZM146.413 24.408L151.597 36H146.989L144.145 28.044L141.265 36H136.837L141.841 24.408L137.089 13.284H141.733L144.145 20.772L146.557 13.284H151.021L146.413 24.408Z" fill="url(#paint0_linear_501_30)"/>
<path d="M58.24 48.44V45.36C58.24 45.0933 58.2 44.9267 58.12 44.86C58.04 44.78 57.8733 44.74 57.62 44.74H55.48V49.06H57.62C57.8733 49.06 58.04 49.0267 58.12 48.96C58.2 48.88 58.24 48.7067 58.24 48.44ZM58.24 54.2V50.86C58.24 50.6067 58.2 50.44 58.12 50.36C58.04 50.28 57.8733 50.24 57.62 50.24H55.48V54.82H57.62C57.8733 54.82 58.04 54.7867 58.12 54.72C58.2 54.64 58.24 54.4667 58.24 54.2ZM54.1 43.56H58.04C59.0933 43.56 59.62 44.0867 59.62 45.14V48.72C59.62 49.3333 59.3733 49.66 58.88 49.7C59.3733 49.78 59.62 50.0867 59.62 50.62V54.42C59.62 55.4733 59.0933 56 58.04 56H54.1V43.56ZM61.9172 43.56H63.2772V56H61.9172V43.56ZM67.162 43.56H69.202C70.2554 43.56 70.782 44.0867 70.782 45.14V54.42C70.782 55.4733 70.2554 56 69.202 56H67.162C66.1087 56 65.582 55.4733 65.582 54.42V45.14C65.582 44.0867 66.1087 43.56 67.162 43.56ZM69.422 54.2V45.36C69.422 45.0933 69.382 44.9267 69.302 44.86C69.222 44.78 69.0554 44.74 68.802 44.74H67.562C67.3087 44.74 67.142 44.78 67.062 44.86C66.982 44.9267 66.942 45.0933 66.942 45.36V54.2C66.942 54.4667 66.982 54.64 67.062 54.72C67.142 54.7867 67.3087 54.82 67.562 54.82H68.802C69.0554 54.82 69.222 54.7867 69.302 54.72C69.382 54.64 69.422 54.4667 69.422 54.2ZM74.2691 54.82H77.6891V56H72.8891V43.56H77.5491V44.74H74.2691V48.94H76.9491V50.12H74.2691V54.82ZM83.2777 43.56H84.5377V56H83.0377L80.4577 46.36V56H79.1977V43.56H80.7977L83.2777 52.86V43.56ZM88.1167 54.82H91.5367V56H86.7367V43.56H91.3967V44.74H88.1167V48.94H90.7967V50.12H88.1167V54.82ZM94.4053 50.8V56H93.0453V43.56H96.6653C97.7186 43.56 98.2453 44.0867 98.2453 45.14V49.22C98.2453 50.1667 97.832 50.6867 97.0053 50.78L98.8853 56H97.4053L95.5853 50.8H94.4053ZM94.4053 44.74V49.62H96.2653C96.532 49.62 96.6986 49.5867 96.7653 49.52C96.8453 49.44 96.8853 49.2667 96.8853 49V45.36C96.8853 45.0933 96.8453 44.9267 96.7653 44.86C96.6986 44.78 96.532 44.74 96.2653 44.74H94.4053ZM105.33 47.04H103.95V45.36C103.95 45.0933 103.91 44.9267 103.83 44.86C103.75 44.78 103.584 44.74 103.33 44.74H102.23C101.964 44.74 101.79 44.78 101.71 44.86C101.644 44.9267 101.61 45.0933 101.61 45.36V54.22C101.61 54.4733 101.644 54.64 101.71 54.72C101.79 54.8 101.964 54.84 102.23 54.84H103.33C103.584 54.84 103.75 54.8 103.83 54.72C103.91 54.64 103.95 54.4733 103.95 54.22V50.92H102.95V49.74H105.33V54.44C105.33 55.4933 104.804 56.02 103.75 56.02H101.81C100.757 56.02 100.23 55.4933 100.23 54.44V45.14C100.23 44.0867 100.757 43.56 101.81 43.56H103.75C104.804 43.56 105.33 44.0867 105.33 45.14V47.04ZM110.143 56H108.783V52.2L106.323 43.56H107.703L109.463 50.86L111.123 43.56H112.503L110.143 52.2V56Z" fill="#181414"/>
<path d="M37.6238 30.1899C37.568 30.0177 37.5118 29.8456 37.4002 29.6734C37.1204 30.9361 36.3934 32.7726 34.9386 33.3467C34.9386 33.3467 37.5122 24.4503 31.694 18.6535C31.694 18.9405 31.7498 19.2849 31.7498 19.6292C31.694 23.9911 29.456 25.6558 29.456 25.6558C29.456 13.0862 21.7358 8.8963 20.5612 0C16.142 8.26505 19.1627 13.4305 12.6732 21.4659C12.3934 20.4902 10.715 18.7683 10.3236 17.8499C8.25384 25.1965 5.96009 23.8188 4.89718 29.6734C3.89041 27.9514 2.54759 26.4016 0.701484 25.1965C1.14907 26.2871 1.31687 27.4349 1.31687 28.5827C1.31687 29.4435 0.981276 30.8784 0.589498 32.6003C-1.36869 41.439 1.59676 47.908 8.81316 51.5813C8.30977 50.2037 9.59629 50.7374 9.87569 49.1876C9.93149 48.8433 10.0435 48.4414 10.2113 47.9821C10.1555 46.4899 10.4349 45.6288 10.4911 45.3994C10.7147 44.6532 11.1065 43.9072 11.5541 43.2183C7.28073 43.2183 8.06393 40.4057 6.83313 38.5121C6.60953 38.1678 6.32974 38.0528 6.04995 37.9956C6.04995 37.9956 5.04319 37.5364 3.64462 38.0528C2.41388 38.4548 2.80564 39.3728 2.80564 39.3728C2.80564 39.3728 6.40739 35.8717 8.81317 34.5517C8.81317 34.5517 9.42856 34.2647 9.54054 34.0925L9.59635 33.8054C9.59635 33.576 9.59634 33.1741 9.93194 32.887C10.5473 32.2557 11.6661 31.8541 11.7223 31.8541C12.2819 31.6247 12.8411 31.3376 13.2887 30.9357C13.9041 30.4192 14.3517 29.7302 14.7431 29.0416C14.7989 28.9267 14.9109 28.9844 14.9109 29.0989V29.1561C14.7431 30.4761 15.1345 31.7965 15.9739 32.8295C16.4773 33.4608 16.8691 34.3216 17.0369 35.4699C17.2047 36.4455 18.04 37.2494 17.9842 38.5121C17.201 39.947 16.7142 41.3817 15.3157 42.5868C14.8123 43.046 14.3647 43.5052 13.973 43.9644C14.6441 43.2757 15.3715 42.7017 16.2105 42.1852C29.5248 33.8053 18.8269 17.9643 18.8269 17.9643C19.1067 18.1365 19.4981 18.4808 19.9456 18.8828C25.7077 23.9337 28.5606 31.6819 27.7217 39.4303L27.4419 42.1852C31.0222 37.9378 30.239 32.543 30.5188 33.0594C30.5188 33.0594 30.5746 33.1743 30.6308 33.3465C32.3649 38.2253 35.05 40.5601 32.7006 45.1517L32.253 46.0125C34.8823 44.5776 37.3997 40.1581 37.3997 40.1581C36.9521 44.6921 34.743 50.5044 30.8829 52.6853L30.1555 53.0873C30.1555 53.4011 30.3233 53.5266 30.3233 53.1446C37.6238 48.4437 41.4838 40.2337 37.6238 30.1895L37.6238 30.1899Z" fill="#FAD537"/>
<path d="M37.9937 32.2064C37.9374 32.0377 37.8806 31.869 37.7679 31.7002C37.4853 32.9377 36.7512 34.7376 35.282 35.3003C35.282 35.3003 37.881 26.5813 32.0054 20.9001C32.0054 21.1815 32.0617 21.5189 32.0617 21.8563C32.0054 26.1313 29.7453 27.7628 29.7453 27.7628C29.7453 15.4439 21.949 11.3376 20.7628 2.61877C16.3 10.7189 19.3505 15.7814 12.797 23.6565C12.5145 22.7003 10.8195 21.0127 10.4243 20.1126C8.33406 27.3126 6.01769 25.9624 4.9443 31.7002C3.9276 30.0126 2.57153 28.4937 0.707214 27.3126C1.15922 28.3815 1.32867 29.5064 1.32867 30.6313C1.32867 31.4749 0.989767 32.8811 0.594124 34.5688C-1.38338 43.2311 3.07998 51.6127 10.3676 55.2127C9.8592 53.8626 9.68975 52.344 9.97191 50.8252C10.0283 50.4877 10.1414 50.0938 10.3108 49.6437C10.2545 48.1813 10.5366 47.3373 10.5934 47.1125C10.8192 46.3811 11.2148 45.6501 11.6669 44.9749C12.9661 43.1186 13.7571 40.3622 12.5141 38.5063C12.2883 38.1689 12.0058 38.0562 11.7232 38.0001C11.7232 38.0001 10.7065 37.5501 9.29415 38.0562C8.05128 38.4502 8.4469 39.3499 8.4469 39.3499C8.4469 39.3499 6.46939 37.7749 8.8989 36.4812C8.8989 36.4812 9.52036 36.1999 9.63345 36.0312L9.68981 35.7498C9.68981 35.525 9.68981 35.1311 10.0287 34.8497C10.6502 34.231 11.7799 33.8374 11.8367 33.8374C12.4018 33.6126 12.9665 33.3313 13.4186 32.9373C14.04 32.4312 14.4921 31.7559 14.8873 31.0811C14.9437 30.9685 15.0568 31.025 15.0568 31.1372V31.1933C14.8873 32.4869 15.2826 33.781 16.1303 34.7933C16.6386 35.4121 17.0343 36.2557 17.2038 37.381C17.3732 38.3372 17.2601 39.5748 17.2038 40.8123C16.4129 42.2186 15.2831 43.5687 13.8707 44.7498C13.3623 45.1998 12.9104 45.6499 12.5147 46.0999C13.1926 45.425 13.9271 44.8624 14.7743 44.3562C28.22 36.1434 19.0114 20.2247 19.0114 20.2247C19.2939 20.3935 19.6892 20.7309 20.1412 21.1248C25.9601 26.075 28.8411 33.6687 27.9939 41.2625L27.7114 43.9624C31.327 39.7998 30.5361 34.5126 30.8186 35.0187C30.8186 35.0187 30.875 35.1313 30.9317 35.3C32.683 40.0815 32.2877 45.4251 29.9151 49.9252L29.463 50.7688C32.1183 49.3625 34.6605 45.0311 34.6605 45.0311C34.2085 49.4747 31.61 53.4125 27.7118 55.55L26.9773 55.9439C27.0336 55.9439 27.0904 56 27.1467 56C36.4685 52.6252 41.8918 42.0499 37.9936 32.2061L37.9937 32.2064Z" fill="url(#paint1_linear_501_30)"/>
<defs>
<linearGradient id="paint0_linear_501_30" x1="52.0479" y1="26.154" x2="152.079" y2="26.154" gradientUnits="userSpaceOnUse">
<stop stop-color="#C90000"/>
<stop offset="1" stop-color="#620000"/>
</linearGradient>
<linearGradient id="paint1_linear_501_30" x1="0.124756" y1="27.6385" x2="39.2834" y2="27.6385" gradientUnits="userSpaceOnUse">
<stop stop-color="#C90000"/>
<stop offset="1" stop-color="#620000"/>
</linearGradient>
</defs>
</svg>
