<svg width="30" height="38" viewBox="0 0 30 38" fill="none" xmlns="http://www.w3.org/2000/svg">
<path d="M15.988 0.529625C15.8795 0.366988 15.7326 0.233637 15.5602 0.141407C15.3879 0.0491775 15.1954 0.000921249 15 0.000921249C14.8045 0.000921249 14.612 0.0491775 14.4397 0.141407C14.2673 0.233637 14.1204 0.366988 14.012 0.529625L6.88696 11.2171C6.76796 11.396 6.69969 11.6037 6.68943 11.8183C6.67917 12.0328 6.72729 12.2461 6.82868 12.4355C6.93006 12.6249 7.08091 12.7832 7.26516 12.8936C7.44941 13.004 7.66016 13.0624 7.87496 13.0625H8.10771L3.30546 20.7456C3.19311 20.9254 3.13093 21.1319 3.12537 21.3438C3.1198 21.5557 3.17106 21.7653 3.27382 21.9507C3.37658 22.1361 3.52709 22.2906 3.70973 22.3982C3.89237 22.5058 4.10049 22.5625 4.31246 22.5625H4.76609L0.875836 30.343C0.785114 30.524 0.742198 30.7253 0.751165 30.9276C0.760132 31.1299 0.820684 31.3265 0.927068 31.4988C1.03345 31.6712 1.18213 31.8134 1.35898 31.912C1.53582 32.0107 1.73496 32.0625 1.93746 32.0625H12.625V38H17.375V32.0625H28.0625C28.265 32.0625 28.4641 32.0107 28.6409 31.912C28.8178 31.8134 28.9665 31.6712 29.0729 31.4988C29.1792 31.3265 29.2398 31.1299 29.2488 30.9276C29.2577 30.7253 29.2148 30.524 29.1241 30.343L25.2362 22.5625H25.6898C25.9018 22.5625 26.1099 22.5058 26.2926 22.3982C26.4752 22.2906 26.6257 22.1361 26.7285 21.9507C26.8312 21.7653 26.8825 21.5557 26.8769 21.3438C26.8714 21.1319 26.8092 20.9254 26.6968 20.7456L21.8922 13.0625H22.125C22.3398 13.0624 22.5505 13.004 22.7348 12.8936C22.919 12.7832 23.0699 12.6249 23.1712 12.4355C23.2726 12.2461 23.3208 12.0328 23.3105 11.8183C23.3002 11.6037 23.232 11.396 23.113 11.2171L15.988 0.529625V0.529625Z" fill="white"/>
</svg>
