<svg width="31" height="35" viewBox="0 0 31 35" fill="none" xmlns="http://www.w3.org/2000/svg">
<path d="M30.5154 14.5464C30.2602 12.3311 28.8029 10.5222 26.8355 9.7468C27.892 8.71305 28.5843 7.27318 28.5843 5.6855C28.5843 2.54719 26.0702 0 22.9735 0C20.6053 0 18.5647 1.51377 17.7634 3.65512C17.0711 3.3229 16.3061 3.13825 15.5045 3.13825C14.7029 3.13825 13.9379 3.3229 13.209 3.65512C12.4072 1.51377 10.4035 0 7.9987 0C4.9016 0 2.42416 2.54752 2.42416 5.6855C2.42416 7.27291 3.07985 8.71305 4.1366 9.7468C2.16924 10.5222 0.711647 12.3311 0.456732 14.5464L0.0193368 18.5706C-0.126292 19.6044 0.565757 20.6013 1.58591 20.7859C2.05964 20.8967 2.56972 20.9706 3.04318 21.0445L3.51691 29.6098C3.58985 30.9022 4.64633 31.8619 5.88505 31.8619H10.0749C10.3665 31.8619 10.658 31.788 10.9129 31.6773L10.9858 32.711C11.0588 33.9663 12.1152 35 13.354 35H17.5805C18.8558 35 19.876 34.0031 19.9486 32.711L20.0216 31.6773C20.2767 31.788 20.568 31.8619 20.8595 31.8619H25.086C26.3614 31.8619 27.3815 30.865 27.4542 29.6098L27.9642 21.0445C28.4743 20.9706 28.9481 20.8598 29.4215 20.7491C30.4417 20.5276 31.0977 19.5675 30.9881 18.5338L30.5154 14.5464ZM22.9733 2.03065C24.9773 2.03065 26.5805 3.69197 26.5805 5.68576C26.5805 7.67929 24.9773 9.34088 22.9733 9.34088C22.281 9.34088 21.6253 9.1194 21.0787 8.7501C21.0423 7.23633 20.4593 5.87037 19.4755 4.87347C19.8399 3.24894 21.2972 2.03059 22.9733 2.03059V2.03065ZM19.1113 8.82387C19.1113 10.8174 17.5081 12.479 15.5042 12.479C13.5368 12.479 11.897 10.8545 11.897 8.82387C11.897 6.83034 13.5003 5.16876 15.5042 5.16876C17.4715 5.16876 19.1113 6.79329 19.1113 8.82387ZM7.99864 2.03065C9.71108 2.03065 11.132 3.249 11.4965 4.87353C10.5493 5.87043 9.92995 7.23639 9.92995 8.75016C9.38353 9.11947 8.7276 9.34094 7.9989 9.34094C5.99491 9.34094 4.39177 7.67962 4.39177 5.68582C4.42812 3.65517 6.03102 2.03071 7.9987 2.03071L7.99864 2.03065ZM10.5127 29.5358C10.5127 29.7205 10.3305 29.9051 10.1119 29.9051H5.92177C5.7032 29.9051 5.55731 29.7205 5.52097 29.5358L4.97455 20.1213C4.93821 19.6413 4.57375 19.2352 4.10005 19.1983C3.37141 19.0876 2.64278 18.9768 1.95045 18.829L2.42418 14.8048C2.64275 12.8481 4.31886 11.3343 6.24992 11.3343H9.67487C9.96638 11.3343 10.2579 11.3711 10.5494 11.445C10.8409 11.9619 11.1687 12.4788 11.6059 12.8849C9.6748 13.6604 8.21753 15.4692 7.92599 17.6845L7.48859 21.709C7.37931 22.7795 8.03502 23.7025 9.05517 23.9243C9.5289 24.035 10.039 24.1089 10.5491 24.1829L10.6947 26.6565L10.5127 29.5358ZM18.5284 23.2963L18.0183 32.6739C18.0183 32.8954 17.8361 33.0432 17.6175 33.0432L13.391 33.043C13.1724 33.043 13.0266 32.8954 12.9902 32.6737L12.4438 23.2591C12.4075 22.7791 12.043 22.373 11.5693 22.3362C10.8407 22.2254 10.112 22.1147 9.41969 21.9669L9.89343 17.9427C10.112 15.9491 11.7881 14.4722 13.7555 14.4722H17.1804C19.1478 14.4722 20.7875 15.9488 21.0425 17.9427L21.5162 22.004C20.8239 22.1515 20.0952 22.2625 19.3666 22.3733C18.9292 22.4104 18.5648 22.8162 18.5284 23.2963L18.5284 23.2963ZM26.9084 19.1982C26.4347 19.2722 26.0705 19.6412 26.0339 20.1212L25.4875 29.5357C25.4875 29.7204 25.3053 29.9051 25.1231 29.9051H20.8965C20.7143 29.9051 20.5321 29.7204 20.5321 29.5357L20.3499 26.6929L20.4955 24.2192C21.0056 24.1453 21.4793 24.0346 21.9894 23.9607C23.0096 23.7392 23.6655 22.7791 23.556 21.7454L23.0822 17.7212C22.8271 15.5059 21.3698 13.697 19.4024 12.9216C19.8395 12.5154 20.1676 12.0354 20.4589 11.4817C20.7504 11.4078 21.0419 11.371 21.3334 11.371H24.7583C26.7257 11.371 28.4018 12.8476 28.6203 14.8415L29.0941 18.9028C28.3293 18.9767 27.637 19.0874 26.9084 19.1982L26.9084 19.1982Z" fill="white"/>
</svg>
